<svg xmlns="http://www.w3.org/2000/svg" xmlns:xlink="http://www.w3.org/1999/xlink" aria-hidden="true" role="img" class="iconify iconify--logos" width="32" height="32" preserveAspectRatio="xMidYMid meet" viewBox="0 0 256 256"><path fill="#F7DF1E" d="M0 0h256v256H0V0Z"></path><path d="m67.312 213.932l19.59-11.856c3.78 6.701 7.218 12.371 15.465 12.371c7.905 0 12.89-3.092 12.89-15.12v-81.798h24.057v82.138c0 24.917-14.606 36.259-35.916 36.259c-19.245 0-30.416-9.967-36.087-21.996m85.07-2.576l19.588-11.341c5.157 8.421 11.859 14.607 23.715 14.607c9.969 0 16.325-4.984 16.325-11.858c0-8.248-6.53-11.17-17.528-15.98l-6.013-2.58c-17.357-7.387-28.87-16.667-28.87-36.257c0-18.044 13.747-31.792 35.228-31.792c15.294 0 26.292 5.328 34.196 19.247l-18.732 12.03c-4.125-7.389-8.591-10.31-15.465-10.31c-7.046 0-11.514 4.468-11.514 10.31c0 7.217 4.468 10.14 14.778 14.608l6.014 2.577c20.45 8.765 31.963 17.7 31.963 37.804c0 21.654-17.012 33.51-39.867 33.51c-22.339 0-36.774-10.654-43.819-24.574"></path></svg>
<svg width="24" height="24" viewBox="0 0 24 24" fill="none" xmlns="http://www.w3.org/2000/svg">
<path d="M6.81 0.219C6.95056 0.0787966 7.14097 4.21785e-05 7.3395 0L16.6605 0C16.859 4.21785e-05 17.0494 0.0787966 17.19 0.219L23.781 6.81C23.9212 6.95056 24 7.14097 24 7.3395V16.6605C24 16.859 23.9212 17.0494 23.781 17.19L17.19 23.781C17.0494 23.9212 16.859 24 16.6605 24H7.3395C7.14097 24 6.95056 23.9212 6.81 23.781L0.219 17.19C0.0787966 17.0494 4.21785e-05 16.859 0 16.6605L0 7.3395C4.21785e-05 7.14097 0.0787966 6.95056 0.219 6.81L6.81 0.219ZM7.65 1.5L1.5 7.65V16.35L7.65 22.5H16.35L22.5 16.35V7.65L16.35 1.5H7.65Z" fill="#FAFAFB"/>
<path d="M6.969 6.969C7.03867 6.89915 7.12143 6.84374 7.21255 6.80593C7.30366 6.76812 7.40135 6.74866 7.5 6.74866C7.59865 6.74866 7.69633 6.76812 7.78745 6.80593C7.87857 6.84374 7.96133 6.89915 8.031 6.969L12 10.9395L15.969 6.969C16.0387 6.89927 16.1215 6.84395 16.2126 6.80621C16.3037 6.76847 16.4014 6.74905 16.5 6.74905C16.5986 6.74905 16.6963 6.76847 16.7874 6.80621C16.8785 6.84395 16.9613 6.89927 17.031 6.969C17.1007 7.03873 17.156 7.12151 17.1938 7.21262C17.2315 7.30373 17.2509 7.40138 17.2509 7.5C17.2509 7.59861 17.2315 7.69626 17.1938 7.78737C17.156 7.87848 17.1007 7.96127 17.031 8.031L13.0605 12L17.031 15.969C17.1007 16.0387 17.156 16.1215 17.1938 16.2126C17.2315 16.3037 17.2509 16.4014 17.2509 16.5C17.2509 16.5986 17.2315 16.6963 17.1938 16.7874C17.156 16.8785 17.1007 16.9613 17.031 17.031C16.9613 17.1007 16.8785 17.156 16.7874 17.1938C16.6963 17.2315 16.5986 17.2509 16.5 17.2509C16.4014 17.2509 16.3037 17.2315 16.2126 17.1938C16.1215 17.156 16.0387 17.1007 15.969 17.031L12 13.0605L8.031 17.031C7.96127 17.1007 7.87848 17.156 7.78737 17.1938C7.69626 17.2315 7.59861 17.2509 7.5 17.2509C7.40138 17.2509 7.30373 17.2315 7.21262 17.1938C7.12151 17.156 7.03873 17.1007 6.969 17.031C6.89927 16.9613 6.84395 16.8785 6.80621 16.7874C6.76847 16.6963 6.74905 16.5986 6.74905 16.5C6.74905 16.4014 6.76847 16.3037 6.80621 16.2126C6.84395 16.1215 6.89927 16.0387 6.969 15.969L10.9395 12L6.969 8.031C6.89915 7.96133 6.84374 7.87857 6.80593 7.78745C6.76812 7.69633 6.74866 7.59865 6.74866 7.5C6.74866 7.40135 6.76812 7.30366 6.80593 7.21255C6.84374 7.12143 6.89915 7.03867 6.969 6.969Z" fill="#FAFAFB"/>
</svg>